<svg width="241" height="230" viewBox="0 0 241 230" fill="none" xmlns="http://www.w3.org/2000/svg">
<path d="M3.98055 95.6311C3.88674 96.0978 3.31328 97.9162 3.13542 98.7198C2.96172 97.7113 4.30551 93.94 3.98055 95.6311ZM31.7776 166.92C31.4911 166.524 31.2103 166.125 30.9344 165.721C31.4285 167.002 32.3136 168.637 32.8667 169.815C32.9562 170.008 32.4676 169.652 32.6994 170.099C32.9344 170.546 33.1892 170.284 33.5846 170.899C33.9976 171.596 35.8307 174.929 36.6437 175.988C39.5625 179.998 43.1401 183.602 46.8354 186.965C42.8141 183.707 46.503 187.421 47.7246 188.233C48.0105 188.385 48.2696 188.004 52.3642 191.083C55.0325 192.928 51.9993 192.191 56.9208 194.504C53.6128 191.887 57.1036 194.074 59.9925 195.384C60.3054 195.531 62.0494 196.374 63.7523 197.01C64.9091 197.442 66.049 197.847 66.8373 198.108C67.5818 198.355 68.8103 198.432 69.7997 198.747C70.4807 198.964 70.9426 199.298 71.9578 199.609C76.6886 201.056 81.3755 202.327 86.1698 203.489C83.1871 203.625 88.3091 204.333 88.5288 204.403C89.6374 204.874 84.4202 203.776 86.45 204.371C89.3325 204.997 92.2257 205.55 95.1252 206.025C92.7684 205.519 98.3656 205.906 99.3458 206.285C98.9653 205.66 112.511 208.43 114.634 208.105C115.068 208.056 112.241 207.685 118.818 207.985C119.53 208.009 119.262 208.211 119.636 208.194C119.863 208.183 121.199 207.542 122.647 207.873C123.176 207.969 119.831 208.563 127.208 208.092C124.25 207.685 137.341 206.998 139.716 206.565C139.226 206.557 138.737 206.545 138.249 206.531C140.635 206.403 141.015 206.095 141.543 206.018C143.67 205.692 146.612 205.283 148.548 204.773C150.815 204.171 150.711 203.802 153.365 203.181C152.722 203.284 152.076 203.382 151.431 203.472C153.244 202.987 155.04 202.453 156.819 201.87C152.866 203.717 157.722 201.609 158.036 201.461C158.551 201.257 157.874 201.723 158.739 201.384C158.827 201.345 158.63 201.215 159.956 200.695C162.722 199.58 162.368 199.961 163.527 199.48C163.622 199.436 163.264 199.437 164.712 198.745C164.838 198.684 164.979 198.618 165.135 198.544C171.011 195.61 165.175 198.716 164.944 198.803C164.759 198.907 165.66 198.845 164.973 199.314C164.561 199.586 163.619 200.051 161.615 200.748C163.476 200.093 163.786 200.298 163.995 200.221C164.065 200.194 164.56 199.978 165.154 199.708C166.079 199.29 167.26 198.701 167.356 198.645C168.763 197.83 167.38 198.265 167.646 198.09C167.867 197.976 171.541 196.35 172.003 195.279C173.969 194.807 171.357 196.377 168.547 197.909C168.193 198.249 171.373 196.697 171.529 196.583C175.497 194.254 173.03 195.111 173.721 194.328C174.077 193.917 175.837 193.194 174.138 193.746C177.603 191.452 175.631 193.028 175.879 192.919C176.251 192.744 177.391 191.811 177.549 191.718C177.785 191.584 177.105 192.247 178.01 191.68C178.161 191.583 179.402 190.38 177.523 191.553C179.957 189.876 179.604 189.818 180.692 189.572C181.783 187.658 182.186 189.053 182.857 188.583C184.624 187.316 183.699 187.196 183.768 187.102C184.26 186.482 188.913 182.669 189.897 181.522C189.818 182.285 186.405 184.793 185.754 185.449C183.611 187.734 189.208 182.707 187.918 184.65C188.514 183.887 189.102 183.116 189.678 182.34C191.205 181.388 189.564 183.277 192.814 179.818C193.126 179.046 190.483 182.228 190.881 181.459C191.127 181.018 193.032 179.043 193.006 178.945C192.978 178.844 191.319 180.687 191.486 180.304C191.9 179.533 198.271 173.092 193.705 178.258C195.022 176.86 196.165 176.539 197.129 175.152C197.729 174.247 193.124 178.293 199.167 171.478C199.53 171.521 196.883 174.319 196.824 174.397C196.757 174.525 197.727 174.434 197.831 174.363C198.255 174.159 203.846 166.637 205.193 165.156C204.461 165.606 209.162 159.279 209.462 158.457C209.557 158.248 208.908 158.85 209.016 158.631C209.717 157.282 212.16 153.962 213.063 152.287C213.307 151.844 213.473 151.515 213.587 151.269C213.958 150.466 213.791 150.536 213.834 150.455C214.281 149.622 214.05 150.35 214.316 149.838C214.751 149.079 217.327 143.716 217.387 143.422C217.414 143.339 216.823 144.134 217.304 142.941C217.378 142.727 217.602 142.994 218.94 139.389C220.487 135.076 217.46 142.237 217.906 140.364C219.376 137.769 218.952 137.724 219.265 136.997C219.373 136.741 220.404 134.901 221.063 132.79C220.624 134.313 220.142 135.851 219.625 137.38C220.25 135.906 221.162 133.008 221.601 131.774C221.818 131.175 221.922 131.75 222.309 130.425C222.38 130.144 222.129 128.86 221.333 132.394C221.028 132.604 221.691 131.003 221.848 130.225C221.872 130.106 221.641 129.554 222.14 128.648C222.233 128.416 222.721 131.291 223.577 124.451C223.601 124.233 223.295 124.944 223.315 124.73C223.334 124.584 223.762 122.91 223.779 122.71C223.8 122.514 223.478 123.309 223.498 123.074C223.599 121.872 224.489 120.43 223.95 122.855C224.194 122.055 224.426 121.255 224.646 120.454C224.047 121.244 224.759 119.174 224.915 118.026C225.813 110.772 224.867 115.596 224.886 114.336C224.862 112.308 225.478 113.902 225.5 110.906C225.472 110.625 225.002 114.217 225.537 107.188C225.517 108.224 225.478 109.271 225.42 110.308C225.899 109.73 225.576 106.546 225.562 106.313C225.526 103.557 225.717 105.402 225.396 101.326C225.363 100.962 225.43 100.155 225.329 99.3783C224.927 96.1628 225.436 103.656 225.19 103.866C225.197 103.959 224.783 95.9286 224.694 95.649C224.757 94.4572 225.11 99.2788 225.231 98.3423C225.465 97.9797 223.671 86.5888 222.949 84.3711C222.375 81.7618 222.498 80.4437 221.923 80.6137C222.267 79.7055 221.672 79.1945 221.569 78.8689C220.269 74.9227 220.248 74.9179 218.805 71.6519C218.479 70.9361 218.36 70.2542 218.215 70.013C218.13 69.8735 218.09 70.23 217.699 69.5351C217.221 68.5413 214.236 62.593 214.011 62.1355C213.855 61.6502 215.462 64.5536 215.308 63.9546C214.147 61.8527 212.897 59.8999 211.558 57.8706C210.998 57.0265 211.385 57.391 211.14 57.0272C211.047 56.8605 208.931 54.0876 208.972 54.2377C209.232 54.4984 215.118 63.4894 213.403 61.2258C213.089 60.7754 212.284 59.0093 212.173 59.4486C207.048 51.3445 200.579 43.9996 193.222 37.5789C197.64 41.0593 201.968 45.6839 205.687 50.1545C206.211 50.7651 207.851 52.8955 207.773 52.5385C204.783 48.5791 200.532 44.0873 197.09 40.7404C196.98 40.6324 197.488 40.9151 197.083 40.5035C196.326 39.7165 193.563 37.5676 193.139 37.1455C193.073 37.0669 194.704 38.2369 194.32 37.7485C193.334 36.493 192.594 36.7437 191.569 35.8829C190.82 35.187 185.44 30.6743 183.841 29.873C182.21 28.9636 187.986 32.99 187.433 32.8443C183.555 30.1318 179.648 27.313 175.755 25.0243C175.686 24.984 176.216 25.4531 175.338 24.9526C175.229 24.891 175.126 24.8318 175.029 24.775C173.818 24.0687 173.508 23.7178 172.848 23.3253C172.084 22.854 169.26 21.4731 168.89 21.2409C168.845 21.2093 169.503 21.319 169.593 21.3573C170.872 21.8913 171.195 22.335 171.306 22.3932C171.718 22.6145 172.169 22.7475 172.546 22.9551C173.165 23.2977 173.467 23.5582 174.268 24.0215C174.819 24.3435 174.365 23.8929 174.894 24.2072C174.935 24.2318 175.054 24.3207 175.217 24.4442C175.864 24.921 177.156 25.9035 177.468 25.7405C177.494 25.7265 176.658 25.1726 175.281 24.3327C170.811 21.2686 158.922 16.6407 157.303 16.3864C158.981 16.9613 160.608 17.567 162.24 18.225C158.957 16.8592 154.748 15.936 154.564 15.4441C141.755 11.763 128.172 10.2629 114.555 10.1039C112.123 10.0625 113.455 9.79639 109.444 9.91739C110.483 9.97814 111.522 10.0472 112.558 10.1249C110.506 10.0163 101.388 10.2224 99.9156 10.4097C99.7254 10.4297 99.4745 10.6528 97.2037 10.8302C95.1886 10.9937 94.8472 10.866 93.7658 10.9272C92.8572 10.9804 91.8485 11.1178 91.5767 11.1354C91.3693 11.1484 91.2769 11.0595 90.7782 11.0922C89.2047 11.2002 90.5062 11.3382 88.9154 11.1928C89.2922 11.1402 89.6693 11.0884 90.0469 11.0375C88.1508 11.1858 85.5544 11.3511 88.328 10.9637C88.805 10.8989 88.4053 11.0366 88.7622 10.9973C102.768 9.66631 91.5564 10.4365 86.6725 11.1805C85.3896 11.1651 78.3619 12.2272 78.13 12.2591C77.7977 12.2719 78.9878 11.9788 77.3901 12.1336C77.0441 12.125 67.6951 13.8695 71.0313 13.0932C71.7172 12.9199 76.224 12.1835 77.3141 12.0184C74.7019 12.1232 68.8132 13.614 68.1348 13.7502C65.4164 14.2368 73.2977 12.5035 67.1831 13.6626C62.5118 14.5935 66.9358 13.8712 65.1538 14.3183C64.1396 14.5561 58.8359 15.5484 59.0394 15.7758C57.249 16.2272 58.2685 15.848 58.0442 15.8909C57.8389 15.925 54.2907 16.879 53.1583 17.1294C53.0183 17.1593 53.4183 16.9199 53.273 16.9469C52.9819 16.9971 49.5931 17.9441 49.4724 17.996C49.3886 18.027 50.2198 17.9127 49.8985 18.0305C49.5347 18.1569 46.253 19.0757 46.1006 19.161C45.8512 19.2764 49.8587 18.0892 49.2286 18.4043C47.3475 18.8942 44.3938 19.8682 43.2142 20.3463C43.4939 20.227 45.2889 19.6716 45.9065 19.5008C45.6658 19.7529 41.8494 20.9333 43.1077 20.393C42.3098 20.7242 42.8831 20.5865 42.4445 20.8008C42.402 20.8214 42.2166 20.8851 41.99 20.9626L42.1042 20.9225C41.6208 21.107 41.0006 21.3046 40.8375 21.3717C40.7965 21.4019 42.2915 20.9841 42.0107 21.112C41.4197 21.4751 37.3517 22.4017 37.1082 22.4073C36.2144 22.5465 39.3261 21.8334 39.6274 21.6576C39.6342 21.6624 36.8916 22.1132 36.8777 22.0952C36.6663 22.0067 39.6944 21.4424 39.3346 21.3826C38.5606 21.5448 37.8131 21.6774 37.0893 21.8027C38.3039 21.4836 40.0885 21.1131 41.9257 20.4392L41.8274 20.4737C43.7038 19.8489 45.5661 19.2728 46.2175 18.9943C44.6917 19.465 43.1007 19.9693 41.7943 20.3742L41.8893 20.3408C39.4457 21.1602 37.8528 21.3138 37.8099 21.1445C37.7747 21.0194 39.5943 20.5081 39.5201 20.4808C39.1955 20.4543 36.722 21.1375 36.6463 21.1407C36.5707 21.149 36.5354 21.149 36.5338 21.142C36.5338 21.142 36.5338 21.142 36.5338 21.142C36.5338 21.142 36.5338 21.142 36.5338 21.142C36.4874 21.0915 40.0713 20.2308 40.2785 20.0884C40.568 19.9505 38.8656 20.1586 38.8631 20.0936C38.9073 20.1014 41.5067 19.2728 40.5947 19.446C39.6637 19.6603 37.4459 20.1595 37.3735 20.1604C36.9246 20.2284 40.8157 19.2221 40.9376 19.0698C40.9891 19.059 38.8485 19.5654 38.7872 19.5303C38.7257 19.5204 40.3025 19.0409 40.8982 18.7182C41.3397 18.4957 39.9686 18.8916 40.2039 18.7996C40.2569 18.7802 40.6629 18.6578 41.1953 18.462L41.1621 18.4736C42.2248 18.119 43.8785 17.5951 43.9947 17.5508C44.2441 17.4529 43.4021 17.627 43.5146 17.5693C43.6718 17.4863 44.8113 17.164 44.6552 17.1795C44.5681 17.1863 42.2909 17.7378 41.0183 18.0412L41.0373 18.0345C40.4937 18.1833 40.1135 18.2539 40.1151 18.2307C40.1183 18.1886 40.5259 18.062 40.9865 17.8969L40.972 17.902C41.999 17.5742 43.3326 17.1826 40.8913 17.6594C40.7414 17.6941 40.5694 17.7329 40.3808 17.7728C40.3519 17.7862 39.3078 18.1436 39.2756 18.1431C38.5992 18.2252 41.9407 17.1647 37.8061 18.2942C39.3143 17.9042 40.2413 17.5667 40.7807 17.3399C41.9526 16.8952 41.4117 17.0303 40.7383 17.1992C40.1142 17.3807 39.372 17.5362 39.776 17.3222C39.8953 17.2576 40.2345 17.1285 40.6401 16.9591C40.6434 16.958 40.6532 16.9544 40.6565 16.9534C41.6423 16.5784 43.0982 16.0877 43.1062 16.0762C42.7828 16.0629 41.869 16.4503 41.536 16.5037C41.3451 16.5309 43.9591 15.5624 43.3406 15.6828C43.0872 15.7299 41.3339 16.3014 40.5299 16.5727C40.524 16.5745 40.5068 16.5807 40.501 16.5828C40.2837 16.6633 40.134 16.7135 40.1092 16.7204C39.0363 17.0008 40.3004 16.502 40.0517 16.5294C39.9014 16.5642 38.2733 17.0337 38.22 17.0292C38.1633 17.0374 39.6573 16.541 40.3584 16.1966C40.3667 16.1937 40.3915 16.1847 40.3999 16.182C40.5662 16.1124 40.7006 16.0555 40.7809 16.0196C40.9692 15.9354 40.6559 16.0123 40.368 16.0859C40.3589 16.0888 40.3322 16.0984 40.3233 16.1016C40.0992 16.1653 39.8869 16.2204 39.991 16.1764C40.0882 16.1349 40.1934 16.0914 40.3029 16.0463C40.3122 16.043 40.34 16.0329 40.3494 16.03C41.9207 15.4451 44.6087 14.7803 41.5798 15.4275C41.4165 15.4626 40.5933 15.7405 40.2874 15.8437C40.2768 15.8471 40.2454 15.8585 40.2348 15.8622C40.1754 15.8844 40.1371 15.898 40.1313 15.8994C39.8863 15.9506 39.9787 15.8936 40.2072 15.7874C40.2182 15.7835 40.2511 15.7716 40.2623 15.7681C40.7263 15.5728 41.7092 15.2224 41.9464 15.0901C42.5742 14.734 39.4574 15.8519 42.0402 14.8907C41.3241 15.0921 40.7294 15.2703 40.1573 15.4525C40.1441 15.4567 40.105 15.4708 40.092 15.4754C39.2015 15.7867 38.3067 16.054 36.8555 16.4146C38.2073 16.0822 39.2848 15.7402 40.0655 15.4039C40.0791 15.3991 40.1195 15.3844 40.1332 15.3801C43.0342 14.2889 43.5255 13.9332 40.0281 15.0642C40.0124 15.0691 39.9657 15.086 39.9501 15.0915C39.4956 15.2576 38.9337 15.4398 38.2395 15.6329C39.2942 15.3407 39.6798 15.1303 39.9127 14.9902C39.929 14.9845 39.9776 14.9668 39.994 14.9616C40.267 14.8159 40.3575 14.7321 40.6853 14.6193C41.0882 14.473 44.4542 13.5904 42.8007 13.6485C42.5886 13.6549 40.6221 14.3874 41.209 14.069C46.0253 12.5136 41.2784 13.9612 41.2777 13.9517C41.2528 13.5958 53.0816 10.1986 55.1452 9.71107C57.4926 9.04618 59.5811 8.30319 60.0923 8.1774C61.7907 7.7636 60.4065 8.21765 60.7958 8.1661C61.1831 8.1029 66.0089 6.76744 66.2552 6.7373C67.2113 6.57876 66.2786 6.92269 66.3786 6.90799C67.5739 6.71112 74.1105 5.28744 75.9721 5.01176C75.8959 4.92652 72.1945 5.6102 74.4794 5.03453C77.1486 4.36943 77.3783 4.75245 77.4485 4.75599C89.8169 2.61694 102.361 1.33949 114.987 1.17679C114.827 0.902078 106.581 1.35069 106.398 1.36607C105.28 1.15617 119.23 0.757699 120.951 1.00131C119.647 0.926776 118.347 0.865872 117.046 0.817908C119.27 0.522104 124.194 0.965156 127.423 1.02217C128.465 1.03504 126.474 0.824679 126.515 0.821493C127.694 0.763177 129.563 0.958256 128.151 1.02584C131.021 1.05252 130.596 1.18671 132.783 1.3677C132.896 1.37818 131.964 1.18326 133.704 1.28157C134.529 1.31475 138.854 1.76914 139.456 1.75463C139.704 1.7378 137.548 1.03008 137.233 1.39252C132.53 0.730438 135.706 1.41431 133.869 1.23368C133.586 1.21725 134.26 1.01265 129.625 0.800653C130.537 0.449511 135.845 1.17507 136.759 1.24694C138.658 1.32328 130.906 0.388903 129.455 0.651652C130.145 0.39471 128.903 0.570567 127.179 0.474777C125.286 0.375105 126.116 0.324543 125.09 0.283754C122.283 0.19033 123.443 0.432422 121.14 0.198527C123.371 0.81181 117.192 0.212115 115.384 0.115143C118.321 0.0486817 121.267 0.0439739 124.209 0.107038C124.042 0.0710511 123.875 0.0353932 123.708 -3.33786e-05C124.483 0.0264888 125.263 0.0580182 126.039 0.0942836C125.913 0.118649 125.787 0.143117 125.661 0.167684C129.672 0.143647 130.643 0.462188 130.967 0.480019C135.163 0.7881 140.026 1.30519 144.264 1.9613C144.901 2.07307 144.498 1.74583 149.104 2.74162C150.569 3.074 149.147 2.95697 150.818 3.26451C152.99 3.27019 152.887 3.6121 153.504 3.74744C155.283 4.1464 156.38 4.31547 156.55 4.35537C158.755 4.87977 161.941 5.79562 164.316 6.55666C164.362 6.56943 163.171 6.042 164.698 6.57813C165.247 6.76189 169.89 8.93186 174.062 10.6035C173 10.0885 171.952 9.60398 170.88 9.13146C172.163 9.55911 180.963 13.6611 178.9 12.4948C177.64 11.7169 174.27 10.5838 174.058 10.1028C175.144 10.6243 178.094 11.9514 181.313 13.724C186.606 16.5737 192.598 20.5317 193.268 21.0871C193.416 21.2036 192.387 20.6519 192.593 20.8119C192.766 20.9282 196.034 23.1897 196.439 23.5669C196.68 23.7771 195.191 22.79 195.285 22.9163C195.384 22.9991 199.355 26.0429 199.658 26.1077C198.668 25.3971 195.925 23.2899 197.461 24.2675C197.659 24.3933 198.558 25.203 198.793 25.3592C201.012 26.7964 194.704 22.0754 193.688 21.4455C197.877 24.0613 203.745 28.98 208.021 32.8408C209.625 34.5162 205.355 30.6655 207.205 32.521C211.012 36.4223 208.397 33.3773 208.529 33.4759C209.646 34.3037 212.34 38.0873 212.748 37.7238C214.05 39.2281 213.569 38.7965 215.492 40.8234C215.277 40.522 215.062 40.2238 214.845 39.925C217.243 41.9858 220.678 47.7039 220.294 47.3601C219.364 46.3984 217.413 43.5776 217.211 43.3661C216.913 43.053 215.754 42.4496 212.936 38.662C211.371 37.4803 217.74 44.3912 214.693 41.364C216.793 43.3869 223.687 53.0865 224.622 54.5381C224.747 54.7015 224.592 53.672 225.98 56.2903C226.631 57.5343 224.852 54.6595 225.109 55.2542C226.685 56.6243 237.785 81.2348 237.886 86.6288C237.956 86.9543 237.802 86.8609 237.87 87.1806C238.095 88.1574 238.948 91.7343 239.117 93.5316C238.829 89.7977 239.894 96.9875 239.947 98.841C240.123 101.652 239.849 101.476 239.86 102.686C239.924 107.328 240.152 114.59 239.164 118.104C239.753 117.984 238.129 124.249 237.494 127.081C237.056 129.296 236.627 132.633 237.541 129.662C236.661 133.522 235.635 137.538 234.5 141.061C234.31 141.646 234.424 140.79 234.103 141.788C234.075 141.877 234.185 142.065 233.91 142.906C231.519 149.879 232.394 146.387 231.82 147.637C231.486 148.324 231.245 148.835 231.079 149.215C232.701 145.257 234.213 140.541 234.597 139.267C233.982 140.259 231.534 148.283 230.421 150.451C230.385 150.527 230.317 150.175 230.282 150.254C230.281 150.256 230.28 150.257 230.28 150.259C229.934 151.123 227.567 156.419 228.279 155.439C228.476 155.173 229.625 152.769 230.841 149.801C230.547 150.614 231.003 150.109 230.952 150.253C230.346 152.032 228.27 156.026 227.508 157.459C227.339 157.787 227.48 157.83 227.453 157.884C227.37 158.043 227.295 158.172 227.227 158.278C226.74 159.035 226.636 158.636 226.364 159.986C225.426 161.154 226.228 159.666 226.99 158.156C227.614 156.925 228.21 155.682 227.973 155.831C227.878 155.891 227.428 156.75 226.761 158.038C224.652 162.35 219.582 170.887 219.819 171.007C219.751 171.032 219.58 171.196 219.268 171.558C218.593 172.377 215.983 176.253 215.555 176.948C215.488 177.068 215.85 177.266 215.754 177.406C215.533 177.772 211.839 182.166 210.648 183.965C211.423 183.103 212.189 182.229 212.942 181.348C208.605 186.848 209.308 186.039 210.907 184.321C210.981 184.231 211.065 184.153 211.137 184.067C212.352 182.718 213.833 180.925 213.879 180.915C214.152 180.951 206.571 190.2 207.731 188.157C207.922 187.896 211.587 183.772 209.629 185.691C209.297 186.033 207.04 188.767 206.885 188.88C205.941 189.693 210.753 183.652 209.903 184.176C208.929 185.795 207.261 187.527 205.875 189.168C205.244 189.915 205.234 190.235 205.155 190.327C203.97 191.692 204.497 190.794 204.09 191.239C203.883 191.483 201.736 194.379 201.743 193.431C193.607 201.942 199.908 196.19 204.787 190.881C203.427 192.726 200.188 195.827 198.747 197.237C198.233 197.747 198.696 197.618 197.828 198.482C196.15 200.375 186.514 207.78 183.69 209.34C185.274 208.185 184.663 208.304 183.419 209.151C182.162 209.992 183.401 209.574 183.173 209.765C182.964 210.02 176.756 213.558 175.666 214.089C180.354 211.384 179.173 211.789 175.131 213.924C175.686 213.556 176.238 213.182 176.783 212.802C175.683 213.461 173.914 214.315 172.194 215.05C170.368 215.834 168.633 216.5 167.927 216.862C167.715 216.972 168.58 216.833 168.462 216.894C167.282 217.525 163.003 218.959 162.826 219.082C162.68 219.203 164.542 218.691 163.904 219.025C163.769 219.097 161.939 219.484 160.232 220.141C159.598 220.384 160.047 220.444 159.889 220.51C158.566 221.052 159.268 220.479 156.802 221.313C154.995 221.91 153.717 222.637 151.139 223.193C159.596 221.287 152.555 223.153 149.051 224.103C148.489 224.251 149.061 224.533 145.626 225.091C152.695 222.823 143.511 225.244 141.591 225.504C141.486 225.52 141.41 225.285 140.475 225.441C140.396 225.454 140.537 225.602 139.669 225.758C131.42 227.103 136.68 226.126 135.091 226.188C134.416 226.218 130.414 226.897 129.325 226.981C129.075 227.002 129.177 226.819 128.212 226.903C126.505 227.05 124.981 227.326 123.852 227.396C123.72 227.401 123.705 227.133 121.568 227.301C120.968 227.346 120.294 227.464 121.15 227.52C123.998 227.72 129.356 226.909 132.576 226.796C135.525 226.738 126.3 227.682 125.815 227.64C125.64 227.653 127.436 227.399 125.602 227.488C124.041 227.563 121.191 228.175 118.852 228.102C118.672 228.1 116.812 227.702 116.899 227.675C116.977 227.663 119.832 227.537 119.416 227.42C119.367 227.41 117.554 227.437 117.319 227.346C117.028 227.24 116.262 226.174 115.881 226.145C114.898 226.071 115.534 226.32 114.897 226.296C113.528 226.266 108.822 225.769 108.647 226.119C109.426 226.181 110.206 226.237 110.987 226.287C106.639 226.141 108.481 226.368 107.86 226.412C107.192 226.449 107.4 226.136 105.941 226.01C105.62 226.009 99.514 225.542 99.6108 225.668C103.005 225.785 101.714 226.059 101.869 226.085C102.459 226.165 103.236 226.002 104.031 226.069C109.624 226.5 103.951 226.467 105.264 226.651C105.718 226.715 106.641 226.579 106.834 226.6C107.46 226.67 107.454 226.924 107.876 226.926C108.86 226.931 107.738 226.511 107.817 226.496C108.704 226.329 112.121 226.74 109.963 227.046C111.242 227.238 111.415 226.768 112.426 226.986C114.443 227.408 111.404 227.244 110.577 227.268C107.61 227.368 106.741 227.156 102.57 226.882C101.07 226.778 99.2694 226.828 98.5735 226.765C98.1274 226.739 94.1313 225.422 93.8264 226.663C92.2369 226.329 89.8756 225.116 88.2409 224.879C86.7702 224.666 87.1529 225.193 87.013 225.188C86.7975 225.181 85.0319 224.83 84.4213 224.78C83.7052 224.723 84.0206 224.962 82.8932 224.818C80.0885 224.448 80.265 223.988 79.9882 223.902C76.7861 222.853 78.0728 223.811 77.3315 223.704C76.6246 223.654 67.2678 221.046 65.2755 220.59C66.1017 220.726 66.9304 220.859 67.7565 220.986C66.4076 220.308 64.756 220.337 64.8847 219.815C64.3439 220.566 61.5703 219.136 60.6909 218.879C60.342 218.78 60.3238 218.93 59.8881 218.8C59.0836 218.56 57.818 218.134 56.6142 217.717C55.1044 217.198 53.6942 216.638 53.1559 216.468C50.4733 215.578 53.3463 217.146 56.3935 218.357C58.1212 219.063 59.8609 219.7 60.1711 219.81C59.5709 219.62 57.9104 219.125 56.2935 218.647C53.2274 217.727 50.3528 216.682 53.1321 218.082C53.8237 218.42 55.2544 218.514 55.6653 218.635C55.8862 218.702 56.0757 218.76 56.2373 218.811C57.9002 219.323 56.1866 219.077 56.3528 219.164C56.6611 219.323 58.3828 219.524 58.797 219.695C58.936 219.751 57.9163 219.769 60.2637 220.506C59.6684 220.476 57.861 219.935 56.059 219.328C53.798 218.573 51.602 217.617 51.0909 217.442C50.768 217.29 52.5139 218.934 46.7523 215.516C46.7935 215.606 46.8348 215.695 46.8764 215.784C43.5352 214.176 40.3407 212.343 37.2909 210.325C37.7041 210.431 39.5711 211.318 37.3903 209.944C36.1445 209.138 36.8659 210.018 36.7489 209.95C35.1112 209.835 17.7688 193.892 15.6398 189.595C14.6786 188.368 12.028 184.855 11.8635 184.555C10.6976 182.918 7.47652 176.492 6.91949 175.144C6.52686 174.331 6.61965 175.227 6.30267 174.481C6.01186 173.784 6.57544 174.395 6.49625 174.185C5.66955 172.709 1.37862 160.662 1.29443 156.039C1.27283 155.797 1.25779 155.584 1.24983 155.405C1.26404 155.564 1.29072 155.777 1.32816 156.035C1.61337 159.267 4.35719 167.475 4.5517 167.184C4.55409 167.138 4.03328 164.692 3.81266 164.218C3.80795 163.347 2.40891 160.639 2.27065 159.001C2.26371 158.816 2.75075 159.463 2.38074 156.6C2.35939 156.422 2.32 156.192 2.27143 155.919C2.07311 154.864 1.67739 153.065 1.76782 151.2C1.00212 148.01 0.833426 130.72 0.62712 129.485C0.600204 129.449 0.419872 131.902 0.251326 130.238C0.0408688 128.018 0.828151 130.027 0.966197 127.462C0.945801 127.081 1.27217 119.904 1.28338 119.662C0.985402 117.434 0.310493 123.715 0.292221 123.624C0.144075 123.399 0.45155 118.143 0.528256 117.93C0.579885 117.733 0.806044 122.07 1.05282 116.911C0.918197 117.49 0.787333 118.071 0.660199 118.652C0.739683 116.216 1.211 116.039 1.29983 115.457C1.59252 113.655 1.18434 111.573 2.46717 108.801C2.80846 108.073 2.83475 109.388 2.88352 109.297C3.32028 108.434 2.7519 107.108 3.5889 105.842C3.66123 105.749 3.35397 109.015 4.47994 103.425C4.34334 103.797 4.20853 104.17 4.07551 104.544C4.07664 103.725 5.32713 98.0476 5.59502 97.3023C6.28232 95.1146 6.1366 97.1523 6.71928 94.9279C5.73936 96.1854 7.74807 89.4309 8.11842 89.9886C7.8294 88.8457 10.3624 83.3704 11.5679 80.8103C12.2806 79.1778 13.6527 75.7716 13.9537 75.2824C14.3069 74.6822 14.5767 75.065 15.2455 74.0044C15.4283 73.7074 16.9378 70.2613 19.0668 67.7287C19.4751 67.2345 20.7915 66.5255 20.3096 67.6042C19.4727 69.4387 17.0928 72.4042 17.4894 72.5832C17.8853 72.7466 20.2408 68.2539 21.0668 67.1633C24.8127 62.0933 23.1789 65.4061 23.3836 65.3417C23.8968 65.2 25.8934 62.4355 26.0116 62.355C26.4749 61.9721 25.2633 64.0695 25.4233 64.2316C25.6207 64.4213 27.9725 62.1504 27.6063 62.7988C27.0705 63.6991 24.984 65.8605 24.9012 66.0317C23.7339 68.1989 26.1684 65.8192 26.9761 65.2832C27.2186 65.1178 26.7004 66.1086 26.8592 65.9396C29.2917 63.3773 26.5499 64.7831 28.0363 62.9679C29.384 61.3636 28.0713 63.7581 28.1454 63.709C28.2208 63.6407 29.7784 61.6875 30.1481 61.4887C30.2816 61.3716 27.0492 67.0053 27.5548 67.0225C28.6753 65.3148 29.8434 63.6502 31.072 62.012C31.5494 62.1912 29.4394 64.2619 29.3059 64.5397C29.0163 65.0841 30.2454 63.8921 30.3247 64.0483C30.3742 64.1413 29.4479 65.9207 30.652 64.5991C31.0682 64.1506 31.5914 62.9061 33.3034 61.4337C28.7425 67.722 32.3576 63.7227 32.6256 63.659C32.8972 63.6008 30.9153 66.6953 33.6564 63.2133C34.5148 63.6838 33.8239 63.4766 33.1641 64.5558C32.3761 65.8924 34.7786 63.2868 31.1798 67.5648C31.7055 67.562 34.4628 64.0353 34.6597 63.8968C34.8146 63.7612 34.3506 64.6642 34.6339 64.4404C37.9927 61.8221 35.8367 63.7496 37.0419 63.2C37.1398 63.1415 39.9136 60.4048 37.9803 62.6502C34.5095 66.7745 32.7294 68.2713 33.2574 69.7924C36.0548 66.9683 38.568 62.8381 39.3989 61.9439C40.6501 60.5773 39.5398 62.1678 39.7544 62.0542C39.8249 62.0107 40.9018 60.8446 40.9333 60.8486C42.4375 60.719 36.1372 66.003 34.7645 68.2327C35.3108 67.7855 35.8627 67.3446 36.4198 66.9103C35.8318 67.6368 35.2572 68.3697 34.6964 69.1084C37.6854 65.8236 34.8601 69.0552 34.8847 70.4352C34.888 70.74 36.3666 68.2606 34.8053 71.1876C36.36 69.3299 36.0164 70.0566 37.1999 68.2009C37.3991 68.4483 34.6958 72.5291 33.7817 74.2227C38.0583 68.967 34.7501 71.2916 38.9716 67.1447C39.3585 66.043 37.6078 68.2398 37.7073 68.0246C38.037 67.2336 39.5733 66.0047 40.5121 63.7054C40.6698 63.3267 39.2318 64.223 40.8954 62.4708C41.0834 62.2708 42.4136 61.4389 42.4207 61.4748C42.487 61.824 41.3662 62.829 41.4121 62.964C41.4568 63.0813 42.5674 61.8263 42.5977 61.8467C42.896 62.0674 41.729 62.9461 41.9585 62.8765C42.4553 62.7145 47.1949 59.0008 41.604 64.4389C45.8039 59.4808 41.8314 63.5167 40.2816 65.5239C39.8842 66.0311 39.9372 66.3008 39.3973 67.0432C38.7046 67.997 37.7538 68.996 37.405 69.4998C37.0418 70.0411 39.7234 67.4463 36.3105 71.57C38.3337 69.6983 41.0339 65.6971 43.1822 64.0257C47.45 60.7096 41.2228 67.3067 40.7436 68.1336C40.5941 68.3353 41.37 67.8937 41.2743 68.032C41.0879 68.2309 37.7466 72.1017 37.6693 72.673C37.5584 73.2145 38.7974 71.1875 39.1028 71.2266C39.2658 71.2269 35.8627 76.3024 37.9258 73.7193C39.3215 71.9367 41.5057 68.2848 42.5574 68.2538C40.3853 70.7884 38.3638 73.4498 36.5123 76.215C37.7851 74.8778 39.1014 73.5863 40.4458 72.3571C38.2147 75.2977 36.1177 77.7589 34.6164 80.9639C39.9046 74.3631 33.7314 83.6097 33.8785 83.8286C33.9047 83.8835 36.2013 81.4239 36.6036 81.0709C35.1943 83.6001 31.3857 91.4419 34.5038 87.3104C33.8875 88.0293 33.349 90.2445 33.4017 90.2324C33.8473 90.1257 35.8572 85.7505 35.8148 86.616C35.744 87.6003 34.6523 88.4644 34.0721 89.7447C31.2569 96.3873 33.901 95.2842 31.2239 101.897C31.3367 101.783 31.4497 101.669 31.563 101.556C29.0026 108.883 27.3617 116.695 26.5276 124.731C26.7724 127.916 26.8337 136.342 26.9549 140.542C26.9489 141.38 26.8454 145.555 26.8261 145.878C26.7559 146.468 26.5327 143.268 26.4222 144.729C26.3597 145.034 26.8116 152.131 27.1143 151.589C27.0678 150.792 26.6927 148.326 26.7425 147.913C26.8747 146.811 27.0899 149.28 27.4797 152.83C27.7895 157.409 30.2683 164.42 30.6928 164.875C30.6269 164.452 30.5661 164.027 30.5128 163.605C30.8905 164.715 31.3128 165.821 31.7776 166.92ZM3.29317 102.494C3.16583 101.438 3.98924 99.0412 4.27785 97.5758C4.65004 95.5508 4.40608 91.7609 5.24188 93.6182C4.47602 96.5669 3.82898 99.5303 3.29317 102.494ZM0.297172 145.375C0.326434 143.424 1.13852 144.887 0.978842 146.485C0.961861 146.661 0.277629 148.011 0.297172 145.375ZM0.266499 124.846C0.269746 124.929 0.181402 126.634 0.170406 126.693C-0.18014 128.21 0.0910168 123.064 0.266499 124.846ZM43.7327 213.589C41.6977 212.475 42.8545 213.822 44.2574 214.303C44.3446 214.333 43.8644 213.662 43.7327 213.589ZM42.3046 212.763C41.0222 211.428 37.3981 210.369 39.8924 211.824C40.1345 211.972 42.3601 212.834 42.3046 212.763ZM0.168424 138.429C0.396387 138.642 0.378354 140.654 0.377838 141.513C0.17186 141.499 0.221372 139.269 0.168424 138.429ZM16.0994 189.768C16.2288 189.793 11.9704 183.551 11.5784 183.156C12.2207 184.187 15.8817 189.824 16.0994 189.768ZM29.3362 203.65C29.2047 203.512 27.2548 201.826 27.2166 201.974C28.0122 202.971 29.8999 204.303 29.3362 203.65ZM62.5084 221.165C62.6417 221.163 61.2108 219.847 65.0429 221.555C65.6076 221.805 63.4393 221.419 63.6393 221.508C64.0592 221.694 64.3976 221.821 64.6748 221.905C62.7844 221.443 60.8384 220.884 60.669 220.776C59.8687 220.27 62.4479 221.166 62.5084 221.165ZM80.3436 224.99C80.7654 224.939 83.2605 225.509 83.8241 225.668C83.9207 225.696 83.4183 225.976 84.561 226.158C85.4786 226.301 84.186 225.691 85.9525 226.067C87.7403 226.439 85.2875 226.282 85.4406 226.326C85.6461 226.393 88.4645 226.7 88.3411 226.895C88.2474 227.047 85.2755 226.434 84.5336 226.326C83.5812 226.195 84.6734 226.672 83.1065 226.319C82.1228 226.095 82.768 225.737 82.5639 225.673C82.3921 225.628 78.8893 225.191 80.3486 224.993C80.3469 224.992 80.3453 224.991 80.3436 224.99ZM65.1872 222.029C65.0416 222.004 64.8737 221.966 64.6748 221.905C64.8464 221.947 65.0178 221.988 65.1872 222.029ZM2.43454 108.247C2.08904 109.246 2.38966 106.147 2.84816 105.041C3.0227 105.058 2.47956 108.087 2.43454 108.247ZM67.035 222.136C69.7876 223.003 67.692 222.625 65.1872 222.029C65.9983 222.163 66.1124 221.84 67.035 222.136ZM3.81266 164.218C3.8115 164.364 3.77593 164.466 3.68121 164.503C3.6895 164.115 3.73924 164.069 3.81266 164.218ZM6.09906 171.642C7.35777 173.983 5.38111 169.007 5.22232 169.087C5.14011 169.136 6.03807 171.552 6.09906 171.642ZM46.3608 215.008C46.1726 214.873 49.8089 215.764 44.8045 213.925C47.2576 215.326 44.5712 214.031 44.5743 214.111C44.5555 214.386 48.9189 216.333 49.8813 216.811C50.7961 216.804 47.0048 215.469 46.3662 215.011C46.3644 215.01 46.3625 215.009 46.3608 215.008ZM113.114 228.962C112.521 229.163 110.66 229.047 109.409 228.979C110.005 228.794 111.859 228.928 113.114 228.962ZM166.211 7.04393C174.295 9.87385 175.082 10.8762 167.872 7.83397C167.734 7.77281 165.705 6.92088 166.211 7.04393ZM223.494 50.8244C223.747 51.635 222.181 49.4438 221.21 47.9878C220.993 47.6566 220.307 46.3315 221.363 47.6418C221.087 47.7768 222.535 49.9312 223.494 50.8244ZM68.6777 222.318C69.5594 222.284 72.0097 223.109 73.3271 223.465C72.4632 223.482 69.8175 222.713 68.6777 222.318ZM191.02 19.87C191.756 20.3785 192.37 20.5501 192.252 20.4495C191.723 19.9957 190.238 19.2165 191.02 19.87ZM60.679 219.976C60.6136 219.795 63.9298 220.633 64.0453 221.068C63.3515 220.842 60.7271 220.1 60.679 219.976ZM110.753 228.786C110.219 228.695 113.011 228.645 113.852 228.726C113.78 228.889 111.104 228.854 110.753 228.786ZM202.592 28.3637C203.197 28.8841 204.708 30.1887 204.934 30.278C205.214 30.3723 202.961 28.4883 202.592 28.3637ZM63.1448 6.79445C63.0523 6.78614 65.9096 5.92859 67.2316 5.69757C69.7219 5.25048 63.2504 6.76941 63.1448 6.79445ZM183.839 15.5432C181.767 14.133 184.083 15.6742 184.088 15.4496C183.352 15.0153 182.039 14.267 181.24 13.8532C180.506 13.4734 180.21 13.3598 181.168 13.9796C181.235 14.0237 181.309 14.0717 181.39 14.1237C181.865 14.4289 183.169 15.1377 183.839 15.5432ZM185.782 16.7684C186.039 16.8449 187.706 17.6214 186.355 16.8154C185.733 16.447 184.626 16.0536 185.782 16.7684ZM81.3319 3.15673C83.5078 2.92161 73.6023 4.52426 73.3305 4.60128C73.1793 4.61756 73.0796 4.62482 73.0223 4.62574C72.6741 4.73462 70.8055 5.11251 70.5734 5.05206C71.1299 4.94667 72.6599 4.63563 72.835 4.6149C72.9118 4.6052 72.9692 4.59897 73.0091 4.59622C73.6365 4.35191 80.905 3.17147 81.3319 3.15673ZM97.8509 1.2279C95.3727 1.67071 94.9005 1.36882 95.1141 1.33299C97.8198 0.913063 96.0694 1.35615 96.1543 1.35934C96.3449 1.35942 98.2665 1.05588 97.8431 1.22862C97.8457 1.22838 97.8483 1.22814 97.8509 1.2279ZM84.7062 2.69971C84.6037 2.71706 82.5244 3.01876 82.4396 3.02853C80.7198 3.16969 86.6068 2.31584 84.7062 2.69971ZM93.9964 226.778C95.5349 227.052 93.9759 227.128 92.9604 226.888C92.8774 226.866 92.641 226.529 93.9964 226.778ZM186.861 17.372C187.197 17.5265 194.752 22.6925 194.414 22.2228C193.818 21.7132 185.101 15.9958 186.861 17.372ZM232.737 67.975C232.062 66.4566 233.053 68.0033 233.308 68.86C233.403 69.1764 232.907 68.3574 232.737 67.975ZM56.4101 218.225C54.5812 217.832 55.1407 217.273 56.5293 217.964C56.5586 217.979 56.5883 217.994 56.6184 218.01C56.6635 218.035 56.519 218.195 56.4399 218.223C56.4286 218.226 56.4185 218.227 56.4101 218.225ZM226.739 56.1827C229.75 61.0466 228.463 60.1791 224.776 53.8001C224.933 53.9745 225.09 54.1495 225.246 54.3251C220.604 47.1826 225.025 53.7595 226.141 55.5453C226.574 56.2121 226.343 55.5735 226.737 56.1775C226.737 56.1793 226.738 56.181 226.739 56.1827ZM235.883 76.1253C237.021 81.5501 234.149 71.4145 232.735 68.7335C234.12 71.3143 235.447 74.9103 233.773 69.9879C236.6 77.0447 235.159 74.1993 235.276 74.4793C235.377 74.8234 235.834 75.8929 235.883 76.1253ZM230.221 62.7411C230.065 62.4602 229.053 60.2925 228.607 59.5518C229.398 60.4938 231.291 64.5728 230.221 62.7411ZM115.315 0.203053C115.125 0.326298 114.654 0.413946 112.849 0.411177C113.406 0.337376 114.558 0.263197 115.315 0.203053ZM5.15948 100.995C5.47792 99.6852 6.26585 97.1147 5.76878 97.8328C5.71135 97.9118 4.98858 100.95 5.15948 100.995ZM208.01 33.5885C208.24 33.7609 213.19 38.7647 211.599 36.9215C211.162 36.3374 206.477 31.9065 208.01 33.5885ZM178.438 12.7159C178.922 12.9562 180.72 13.8883 181.111 14.0795C181.154 14.0997 181.18 14.1105 181.186 14.1101C181.212 14.1073 181.19 14.0821 181.133 14.0402C180.747 13.7468 178.688 12.7291 178.438 12.7159ZM7.18345 94.4921C7.24398 94.3261 8.45084 90.3689 8.18976 90.7577C7.6505 91.4912 6.90373 95.0488 7.18345 94.4921ZM99.705 226.897C100.032 226.921 100.436 227.214 100.548 227.228C100.81 227.282 106.812 227.643 104.494 227.792C104.098 227.869 95.505 226.893 94.4084 226.66C94.0264 226.264 97.6358 227.05 98.5363 227.099C98.6943 227.109 98.8292 226.833 99.7021 226.898C99.703 226.897 99.704 226.897 99.705 226.897ZM105.916 0.65449C105.66 0.755116 98.8708 1.31702 98.941 1.20176C101.263 0.984818 103.585 0.801873 105.916 0.65449ZM109.379 0.505622C110.837 0.526083 107.43 0.687926 106.426 0.714591C106.411 0.636957 109.167 0.4982 109.379 0.505622ZM189.627 19.8298C190.23 20.1806 188.541 18.854 188.964 19.0822C189.24 19.228 190.495 20.1331 190.949 20.3639C191.075 20.422 189.854 19.3952 189.461 19.1544C188.905 18.8098 189.359 19.2735 188.757 18.8899C186.752 17.6154 185.006 16.4444 183.08 15.3413C182.906 15.2417 184.204 16.1045 182.72 15.2507C182.57 15.1652 181.962 14.7432 181.046 14.1932C180.55 13.8955 179.965 13.5636 179.314 13.2317C174.978 11.5176 172.084 9.71161 166.546 7.90363C166.746 7.99466 170.769 9.63569 170.999 9.75935C173.589 10.8486 177.374 12.5819 180.853 14.5338C183.334 15.9154 185.636 17.2924 187.441 18.4234C188.533 19.1097 188.057 18.6928 188.528 18.9867C188.898 19.2208 188.361 19.0925 189.627 19.8298ZM5.19721 101.74C5.69522 101.202 5.99168 98.9632 6.38728 97.577C5.92862 97.9773 5.58216 100.392 5.19721 101.74ZM140.125 1.79513C140.796 1.8692 142.845 2.20399 143.028 2.18338C143.254 2.14361 140.285 1.69458 140.125 1.79513ZM133.636 226.854C133.702 226.841 135.363 226.65 135.427 226.648C136.939 226.694 131.949 227.264 133.636 226.854ZM172.216 216.113C172.343 216.05 172.469 215.985 172.594 215.921C173.634 215.391 174.592 214.854 175.031 214.851C174.496 215.101 173.288 215.738 172.635 216.009C172.365 216.122 172.195 216.174 172.216 216.113ZM214.182 180.407C213.819 180.453 216.201 177.529 216.623 176.952C216.577 177.245 214.461 180.382 214.182 180.407ZM115.578 0.720072C113.343 0.73922 113.82 0.984874 112.403 0.903684C112.172 0.892224 111.417 0.386076 113.873 0.527133C114.315 0.556208 112.587 0.702251 115.578 0.720072ZM224.12 52.7929C223.675 52.3797 222.673 50.8357 221.948 49.8165C222.204 49.9798 223.628 52.0582 224.12 52.7929ZM9.82615 87.5028C10.5347 86.5558 12.3061 81.5719 11.5818 82.6795C11.4605 82.8335 10.0744 86.8089 9.82615 87.5028ZM74.5931 222.774C76.6371 223.009 72.5456 221.96 71.1959 221.849C71.7823 221.989 74.4541 222.762 74.5931 222.774ZM205.684 190.415C205.748 190.339 207.224 188.722 207.293 188.653C208.648 187.457 204.465 192.036 205.684 190.415ZM159.798 220.71C160.508 220.311 165.479 218.634 166.626 218.326C165.691 219.052 158.934 221.279 159.798 220.71ZM124.781 0.763667C123.18 0.711046 121.673 0.644905 120.205 0.58294C120.519 0.490324 124.61 0.681796 124.781 0.763667ZM210.907 184.321C210.981 184.231 211.065 184.153 211.137 184.067C211.059 184.154 210.982 184.239 210.907 184.321ZM160.354 6.14747C161.658 6.56546 161.436 6.32492 161.356 6.29453C160.376 5.94389 158.887 5.688 160.354 6.14747ZM6.1044 100.267C6.53858 99.8644 6.88663 97.4544 7.35 96.1322C6.98002 96.4459 6.32594 99.1681 6.1044 100.267ZM237.216 81.8897C237.496 83.626 235.323 76.825 234.886 75.3917C235.019 75.223 237.233 81.6148 237.216 81.8897ZM68.5669 220.803C68.4944 220.559 65.6006 220.027 66.1696 220.294C66.5299 220.469 68.6082 220.958 68.5669 220.803ZM233.728 71.9988C233.445 71.3888 232.989 69.8932 233.28 70.3682C233.657 70.9786 233.804 72.1563 233.728 71.9988ZM197.711 25.676C197.93 25.8512 201.037 28.1372 199.874 27.0402C199.061 26.2755 198.808 26.3274 198.602 26.1676C198.394 25.9767 193.57 22.0895 197.711 25.676ZM239.313 121.633C239.465 120.157 239.755 118.367 239.899 116.826C239.954 117.459 239.55 121.037 239.313 121.633ZM79.5706 223.409C79.2311 223.297 69.8805 221.003 75.1336 222.545C75.4349 222.65 80.5616 223.904 79.5706 223.409ZM115.578 0.720072C115.86 0.718408 116.186 0.720821 116.562 0.729579C116.188 0.727373 115.862 0.722745 115.578 0.720072ZM140.985 2.19691C140.461 2.20983 143.038 2.58412 143.816 2.66368C144.067 2.59005 141.057 2.18704 140.985 2.19691ZM239.748 116.691C239.769 115.806 239.973 114.172 240.03 113.067C240.138 113.257 239.906 116.331 239.748 116.691ZM217.761 174.348C218.81 172.946 219.955 171.11 219.849 171.004C219.887 170.986 219.953 170.929 220.05 170.823C220.151 170.715 221.096 169.095 221.562 168.422C224.564 164.548 211.243 184.205 218.623 172.586C218.339 173.176 218.053 173.761 217.761 174.348ZM152.912 222.411C151.891 222.493 149.209 223.422 149.938 223.32C150.451 223.264 153.941 222.343 152.912 222.411ZM188.097 205.566C187.842 205.725 185.654 207.461 185.647 207.578C187.032 206.754 189.299 204.863 188.097 205.566ZM145.324 223.996C144.701 224.096 143.971 224.573 144.046 224.573C144.7 224.568 146.399 223.956 145.324 223.996ZM120.195 1.20932C121.098 1.26746 123.971 1.21251 124.608 1.12079C124.724 1.14831 125.037 1.18962 125.612 1.25005C125.611 1.24998 125.609 1.2499 125.607 1.24983C126.383 1.01881 149.634 3.56238 134.058 1.67046C133.57 1.62117 134.221 1.78178 132.24 1.60042C132.109 1.58872 132.052 1.49401 131.646 1.45896C130.712 1.35995 125.738 1.02694 124.731 1.07921C124.724 1.0626 124.66 1.04468 124.522 1.02556C123.299 0.844718 119.495 1.15622 120.195 1.20932ZM192.404 202.156C191.944 202.47 190.601 203.612 190.534 203.827C191.271 203.341 193.48 201.434 192.404 202.156ZM79.4157 222.74C78.3611 222.391 75.575 221.987 76.3713 222.298C76.8584 222.499 80.6326 223.151 79.4157 222.74ZM177.812 212.331C183.608 209.111 179.174 211.526 179.951 210.844C179.248 211.348 178.535 211.844 177.812 212.331ZM91.5867 2.45696C92.5659 2.36904 91.4418 2.70313 90.3503 2.72266C90.0075 2.72845 91.0398 2.50676 91.5867 2.45696ZM48.1277 11.4506C48.9799 11.3579 45.019 12.4683 46.5223 11.8928C46.5952 11.8651 48.0722 11.4595 48.1277 11.4506ZM78.3486 4.488C78.9874 4.25899 79.4113 4.16819 81.2793 3.90118C78.5292 4.37905 81.0959 4.0665 78.3486 4.488ZM219.819 171.007C219.833 171.003 219.843 170.998 219.849 171.004C219.835 171.01 219.826 171.011 219.819 171.007ZM139.357 225.161C138.528 225.09 136.292 225.425 136.986 225.537C137.053 225.551 139.053 225.37 139.357 225.161ZM124.608 1.12079C124.505 1.0965 124.559 1.08505 124.731 1.07921C124.739 1.09485 124.693 1.10768 124.608 1.12079ZM151.249 222.504C151.208 222.684 154.565 221.827 154.692 221.759C156.527 220.949 152.632 222.156 151.249 222.504ZM57.9275 216.635C57.7558 216.598 58.6802 217.368 59.3925 217.413C59.9424 217.448 58.5666 216.775 57.9275 216.635ZM72.0763 5.68087C71.048 5.88004 69.6124 6.17265 69.3312 6.13876C70.0138 6.0094 72.084 5.60917 72.0763 5.68087ZM49.6953 11.1085C50.8669 10.6581 53.5496 9.90099 55.3129 9.45343C55.3607 9.57012 50.8131 10.7353 49.6953 11.1085ZM117.35 1.13092C117.437 1.13302 120.064 1.19862 119.709 1.09019C119.184 0.922115 116.609 1.07207 117.35 1.13092ZM62.8177 218.426C64.0092 218.631 61.5094 217.396 60.1978 217.348C59.5209 217.328 62.6136 218.397 62.8177 218.426ZM132.322 225.827C130.73 226.116 134.725 225.885 135.254 225.593C134.515 225.674 132.886 225.728 132.322 225.827ZM184.064 207.815C179.456 210.175 182.339 209.497 183.072 208.92C183.176 208.84 184.178 207.756 184.064 207.815ZM16.5965 76.0606C16.8459 75.3381 15.2094 77.6547 15.2892 78.1018C15.3315 78.3731 16.4289 76.5169 16.5965 76.0606ZM231.079 149.215C230.999 149.412 230.92 149.607 230.841 149.801C230.894 149.653 230.97 149.462 231.079 149.215ZM117.769 225.83C121.315 226.652 120.942 225.966 121.247 225.968C121.911 225.96 123.468 226.135 124.722 226.028C123.289 226.201 121.85 226.353 120.412 226.485C121.544 226.609 131.469 226.253 131.664 226.013C131.943 225.795 128.838 226.148 128.746 226.13C128.613 226.116 128.09 225.61 127.802 225.61C127.327 225.669 119.086 226.021 117.769 225.83ZM174.783 213.441C175.557 213.109 175.861 213.174 176.184 212.946C176.294 212.868 176.224 212.687 176.598 212.426C175.998 212.771 175.392 213.11 174.783 213.441ZM111.409 226.521C110.417 226.239 114.91 226.456 115.056 226.47C115.824 226.657 112.221 226.77 111.409 226.521ZM149.534 222.753C149.371 222.791 145.95 223.492 146.003 223.609C146.933 223.541 151.487 222.461 149.534 222.753ZM177.081 212.145C178.195 211.563 180.324 210.513 179.942 210.401C179.941 210.402 179.939 210.403 179.937 210.404C178.999 211 178.046 211.581 177.081 212.145ZM66.9607 218.9C64.9781 217.773 65.791 218.718 67.6424 219.417C68.2838 219.346 67.2869 219.083 66.9607 218.9ZM60.2792 216.468C60.0321 216.345 58.7018 215.915 57.376 215.507C55.5486 214.946 53.7507 214.329 54.2403 214.697C54.4357 214.847 56.0853 215.388 57.3015 215.723C57.9284 215.896 58.4269 216.029 58.4823 216.054C58.7161 216.161 57.5037 216.1 59.3807 216.644C59.3061 216.508 60.4705 216.564 60.2792 216.468ZM65.2924 218.062C63.301 217.048 62.601 217.617 64.1917 218.098C64.8128 218.285 65.5774 218.207 65.2924 218.062ZM73.9758 220.473C73.22 220.216 71.2008 219.595 69.7259 219.452C71.606 219.981 73.4918 220.482 75.3877 220.958C75.6405 220.875 74.6356 220.701 73.9706 220.472C73.9723 220.472 73.9741 220.473 73.9758 220.473ZM37.7912 15.679C39.3452 15.3625 35.8024 16.3008 35.5867 16.3059C35.1014 16.3466 37.1202 15.8248 37.7912 15.679ZM30.9736 68.522C31.341 68.1977 31.8003 68.1437 32.2926 67.2047C31.4535 67.8874 30.6151 68.6005 29.7953 69.3209C29.7849 70.3268 30.5677 68.8757 30.9736 68.522ZM35.0836 66.6321C35.0045 66.7563 36.1888 66.6847 34.5541 67.7931C33.4118 68.5393 37.5331 62.8668 38.7262 62.2592C37.9213 63.3917 35.777 65.5703 35.0836 66.6321ZM46.0164 60.5032C46.1175 60.496 44.3709 62.331 44.1349 62.5097C42.8523 63.4161 45.4396 60.4907 46.0164 60.5032ZM40.272 66.1902C41.1926 65.4116 39.5245 67.4607 38.9568 67.9993C38.7751 67.9499 40.1245 66.309 40.272 66.1902ZM55.2334 14.9155C56.5818 14.7843 57.6437 14.0639 55.6583 14.655C55.5636 14.6833 55.1755 14.92 55.2334 14.9155ZM44.8797 62.8655C43.9181 63.5781 45.7 61.6414 46.3343 61.1933C46.5 61.2593 45.0206 62.7521 44.8797 62.8655ZM56.2702 15.158C58.0306 14.8743 57.2959 14.5444 57.0803 14.5763C56.1669 14.7148 53.1906 15.6847 52.5931 15.899C57.081 14.6436 55.4471 15.2993 56.2702 15.158ZM64.1519 13.0147C65.7523 12.6121 61.61 13.4049 60.8758 13.7281C61.6632 13.5375 63.694 13.1273 64.1519 13.0147ZM73.9756 11.2691C74.842 11.1331 77.4422 10.7513 77.8678 10.6028C76.9117 10.7652 74.3237 11.1191 73.9756 11.2691ZM75.9839 11.1794C77.3642 11.0677 77.6374 10.6901 76.082 11.0437C76.0217 11.0575 75.9329 11.1815 75.9839 11.1794ZM83.6676 10.1517C84.5799 10.1651 85.5597 9.71036 84.106 9.89116C83.6746 9.94635 83.5709 10.1493 83.6676 10.1517ZM58.5468 15.1541C59.8152 14.9079 61.3944 14.3173 58.6948 14.9271C59.6272 14.6711 60.58 14.4159 61.5136 14.1709C57.9445 14.8637 58.286 15.1099 57.2779 15.3377C55.8617 15.6674 55.9082 15.4067 56.1746 15.2597C55.0415 15.6871 50.1671 16.9662 47.362 17.8324C49.8609 17.1564 53.8896 16.1839 56.3721 15.6165C57.0879 15.4506 57.7396 15.2228 58.3418 15.0862C59.3051 14.8693 58.4754 15.1675 58.5418 15.1553C58.5435 15.1549 58.5451 15.1545 58.5468 15.1541ZM93.7803 9.01794C96.4397 8.94008 94.7347 8.74713 93.2467 8.94653C93.1833 8.95698 93.7142 9.01996 93.7803 9.01794ZM49.1679 62.5207C46.5422 64.5165 47.7772 62.4332 43.589 67.954C45.1627 65.472 43.4128 67.5798 43.6392 67.0218C43.8197 66.5715 45.1107 65.4213 44.1721 65.9131C45.3076 65.1775 49.3471 61.1982 49.6156 61.0945C49.6138 61.0961 49.612 61.0977 49.6102 61.0993C49.7495 61.0247 50.0247 61.8982 49.1679 62.5207ZM74.1356 12.0841C75.0719 12.3166 75.3045 11.6517 77.0786 11.6918C79.2873 10.8485 70.7606 12.7382 69.6691 12.5923C78.9858 10.9083 63.4373 13.3824 70.0527 12.7187C64.6563 13.5541 68.313 13.1294 67.5015 13.3615C66.6383 13.607 63.6072 14.159 63.7898 14.2657C63.7915 14.2654 63.7931 14.265 63.7948 14.2646C65.6496 13.8564 67.4642 13.4784 69.3257 13.1119C67.4522 13.1624 71.2484 12.5203 72.581 12.547C73.0975 12.3916 73.6195 12.2366 74.1356 12.0841ZM63.607 13.835C63.7934 13.7931 67.7933 12.9225 67.5242 12.9211C66.9804 12.973 61.2919 14.2447 63.607 13.835ZM46.1574 18.3699C47.5544 17.9502 49.7793 17.3778 50.51 17.0659C49.1117 17.4479 46.8785 18.0402 46.1574 18.3699ZM120.861 8.49432C122.73 8.44525 116.985 8.23587 118.644 8.41427C118.724 8.41961 120.77 8.49334 120.861 8.49432ZM78.3331 11.34C80.2283 11.1724 79.2846 10.9282 77.9034 11.2437C77.8232 11.2621 78.245 11.348 78.3331 11.34ZM47.3195 64.4448C47.3929 64.6915 43.9447 67.9765 43.4141 68.6271C43.5147 68.0922 47.1807 64.1151 47.3195 64.4448ZM43.7749 19.4236C46.6605 18.8329 50.3725 17.4361 50.7913 17.3322C51.2099 17.2258 50.5934 17.5339 50.6895 17.5114C50.9044 17.4484 55.3555 16.2675 55.5725 16.2147C55.7259 16.1684 54.8667 16.1872 55.7765 15.8959C54.0088 16.4054 45.8454 18.6254 45.4709 18.7999C45.1466 18.9176 47.6574 18.3525 43.7798 19.4221C43.7781 19.4226 43.7765 19.4231 43.7749 19.4236ZM51.8526 17.0866C50.7148 17.3097 53.8453 16.459 54.6003 16.3029C56.2927 15.9361 52.0074 17.0443 51.8526 17.0866ZM59.3983 15.2672C59.7641 15.1941 63.0098 14.4814 63.2665 14.3376C61.7088 14.5477 58.5701 15.4164 59.3983 15.2672ZM95.9154 9.52442C96.7746 9.43839 99.1429 9.34941 99.2724 9.2545C98.4115 9.32052 96.0444 9.42315 95.9154 9.52442ZM38.4858 77.9452C39.3833 76.9905 37.7349 79.4897 37.1923 80.186C37.0317 80.1388 38.4005 78.0221 38.4858 77.9452ZM78.7789 12.0822C79.273 11.9813 89.5919 10.5889 91.0443 10.4621C89.6128 10.4801 79.3706 11.7946 78.9254 11.9442C78.7921 11.9736 78.7141 12.088 78.7789 12.0822ZM56.6998 16.4717C55.7952 16.812 55.1584 16.8311 55.041 16.859C53.8995 17.1251 51.5325 17.7813 52.0233 17.538C54.048 17.0295 58.4957 15.7963 56.6998 16.4717ZM96.7042 10.0513C100.217 9.73911 93.4468 10.1188 94.3461 10.1929C94.4034 10.1943 96.3419 10.0815 96.7042 10.0513ZM77.6333 12.2941C76.8707 12.4597 66.5979 14.2095 64.9796 14.6074C66.4127 14.1295 67.6095 14.0237 69.5976 13.6375C70.1312 13.5342 69.9727 13.4885 70.0302 13.4775C70.9499 13.3027 70.2775 13.5153 70.8458 13.4118C71.1975 13.3189 78.6899 11.9673 77.6333 12.2941ZM56.1878 16.68C55.6292 16.8623 49.359 18.5501 49.1169 18.6236C47.203 19.0046 55.6723 16.7401 56.1878 16.68ZM78.6063 12.31C77.5233 12.6768 72.4165 13.3795 75.8791 12.7014C76.2099 12.6371 77.6402 12.5023 78.6063 12.31ZM96.3476 10.2932C96.5203 10.2792 100.187 10.0756 100.249 10.0066C99.7153 9.99426 94.3728 10.3688 96.3476 10.2932ZM94.4699 10.6863C94.5583 10.6777 93.686 10.6115 95.4053 10.4873C95.5482 10.4792 95.8314 10.6033 97.9818 10.3946C98.4184 10.3524 99.0893 10.2054 99.0399 10.2023C96.7705 10.0814 90.0476 11.1571 94.4699 10.6863ZM56.0997 16.8166C56.4556 16.7888 55.6748 17.1577 54.9169 17.2594C54.5922 17.3032 55.1519 17.0534 56.0997 16.8166ZM107.973 9.76488C105.849 9.92788 112.532 9.82263 112.87 9.81767C112.656 9.72888 108.186 9.73603 107.973 9.76488ZM38.7847 81.7159C38.7855 81.7146 38.7863 81.7134 38.7872 81.7121C37.8733 83.0138 38.188 82.054 38.1408 82.1115C36.0296 84.8124 37.0192 84.349 36.8017 84.8324C36.3644 85.886 35.8351 85.3928 35.1698 87.2239C36.326 84.2258 35.0843 86.8542 34.8264 86.8248C33.7505 86.6606 37.3099 83.3111 38.0034 81.9059C38.0949 81.701 36.9535 82.922 37.1751 82.3932C37.8868 80.62 42.4085 76.809 38.7847 81.7159ZM54.3538 17.4179C53.5735 17.6967 47.4423 19.2824 49.0371 18.7599C49.2802 18.6543 55.5051 16.9564 54.3538 17.4179ZM207.898 162.494C208.57 161.192 206.521 163.884 206.26 164.465C206.138 164.758 207.607 163.071 207.898 162.494ZM192.432 180.307C191.257 181.546 190.471 183.323 191.919 181.746C192.073 181.578 192.644 180.238 192.432 180.307ZM222.095 77.9386C222.458 79.6884 222.796 79.4628 222.379 78.2262C222.23 77.7904 222.083 77.8836 222.095 77.9386ZM217.797 144.016C217.715 144.174 216.872 146.084 216.994 146.058C217.389 145.379 218.368 142.996 217.797 144.016ZM221.857 77.4254C222.269 78.397 221.951 76.5789 221.231 75.4758C221.486 76.0774 221.817 77.3259 221.857 77.4254ZM82.5538 12.3365C83.4664 12.1016 86.0923 11.8042 87.6061 11.6184C87.7853 11.7352 83.6243 12.157 82.5538 12.3365ZM197.612 175.162C196.673 176.509 199.088 173.964 198.69 174.051C198.653 174.078 197.65 175.11 197.612 175.162ZM187.524 32.3775C188.555 33.0048 185.574 30.6099 186.305 31.3938C186.345 31.4299 187.47 32.3419 187.524 32.3775ZM173.575 23.2109C173.895 23.4034 174.659 23.8386 175.338 24.2328C176.331 24.8076 177.166 25.2813 176.432 24.7683C176.356 24.715 175.912 24.445 175.389 24.1422C174.613 23.6897 173.64 23.1774 173.575 23.2109ZM36.991 85.0464C37.5474 84.8459 36.1826 87.0554 35.9553 87.359C35.8543 87.4778 36.2508 85.3032 36.991 85.0464ZM225.016 89.0514C225.226 89.9412 225.557 92.2941 225.724 92.6905C225.554 91.5832 225.193 88.707 225.016 89.0514ZM202.35 169.414C201.258 170.373 199.742 172.265 200.411 172.03C202.08 169.922 199.957 172.098 202.35 169.414ZM219.48 72.016C219.755 72.6991 220.236 73.1057 220.218 73.0236C220.032 72.2304 219.293 71.299 219.48 72.016ZM223.873 125.92C223.736 125.93 223.206 128.248 223.369 127.963C223.43 127.869 223.996 125.911 223.873 125.92ZM115.196 10.3302C116.336 10.4273 112.856 10.4688 111.823 10.3843C111.321 10.2399 115.051 10.3099 115.196 10.3302ZM209.308 54.263C209.116 54.2747 211.346 57.2408 210.62 55.9612C210.443 55.6383 209.381 54.2569 209.308 54.263ZM183.186 29.6694C185.437 30.9079 176.537 24.897 178.769 26.6508C178.93 26.7454 183.021 29.5464 183.186 29.6694ZM168.315 20.8549C168.694 21.0572 168.295 21.4361 166.753 20.5283C166.55 20.4091 167.603 20.7251 167.441 20.6187C167.361 20.5396 163.793 18.9578 163.616 18.9236C163.432 18.8659 163.584 19.1052 163.396 19.0512C163.19 18.9865 160.98 17.9912 159.79 17.5879C157.538 16.8161 157.233 16.8872 157.053 16.8256C156.512 16.6557 155.625 16.2798 154.508 15.9585C148.901 14.271 140.002 12.7157 135.344 11.8926C139.493 12.5443 143.428 13.1 147.486 13.9566C146.253 13.9383 153.452 15.1512 149.23 14.4658C151.284 14.5348 167.238 19.8672 168.31 20.8529C168.312 20.8536 168.313 20.8543 168.315 20.8549ZM187.412 184.798C188.016 183.926 184.048 187.473 183.877 187.969C184.461 187.572 187.346 184.92 187.412 184.798ZM203.561 165.961C203.819 165.529 203.71 164.872 205.422 162.865C205.424 162.863 205.425 162.861 205.426 162.859C205.925 162.269 205.527 163.055 205.643 162.964C205.69 162.934 207.246 161.09 206.156 162.756C204.465 165.29 205.689 162.789 204.752 164.109C204.646 164.273 203.054 166.904 203.202 166.792C203.219 166.782 203.723 166.007 203.832 165.898C204.248 165.487 204.21 165.803 204.264 165.741C204.457 165.545 207.02 161.418 207.582 160.938C207.819 160.815 203.363 167.452 203.092 167.645C202.954 167.788 202.654 167.465 202.497 167.601C202.425 167.676 200.583 170.301 200.281 170.594C200.196 170.681 200.128 170.745 200.077 170.791C200.493 170.502 198.642 172.736 198.575 172.566C198.564 172.492 199.862 170.979 199.913 170.927C199.936 170.905 199.958 170.888 199.977 170.871C199.618 171.112 203.758 165.779 202.665 166.785C203.727 165.14 202.79 167.217 203.561 165.961ZM208.635 158.052C208.565 158.247 208.497 158.439 208.427 158.632C209.82 156.278 211.488 153.698 213.001 150.969C213.387 150.273 213.761 149.572 214.119 148.868C214.571 147.976 213.813 148.884 214.465 147.749C214.983 146.841 215.702 145.905 215.508 146.44C215.464 146.571 214.386 148.409 213.903 149.372C213.513 150.157 213.266 150.68 213.118 151.029C212.736 151.922 213.022 151.646 212.964 151.765C212.875 151.949 211.775 153.609 211.231 154.552C209.869 156.913 209.353 158.069 207.135 161.09C208.188 159.208 207.266 160.016 208.635 158.052ZM198.561 42.7164C198.394 42.7059 196.845 41.0653 196.222 40.5193C196.399 40.5201 197.976 42.1525 198.561 42.7164ZM36.1346 175.406C35.4836 175.107 38.1987 178.888 37.68 177.735C37.5548 177.486 36.4573 175.885 36.1346 175.406ZM50.5955 190.381C51.1418 190.678 49.275 189.008 49.1362 189.198C49.0887 189.27 50.5215 190.35 50.5955 190.381ZM224.473 117.459C224.49 117.331 224.795 115.493 224.809 115.437C225.23 114.237 224.203 120.309 224.473 117.459ZM74.6376 200.661C72.2449 200.171 79.2632 202.303 77.1772 201.433C77.0726 201.394 74.7514 200.689 74.6376 200.661ZM84.4685 203.25C83.8994 203.13 81.4167 202.403 81.3628 202.48C81.2757 202.618 84.1265 203.437 84.4685 203.25ZM218.581 71.8806C218.492 72.223 217.292 69.125 216.734 68.108C216.823 67.7496 218.116 70.8334 218.581 71.8806ZM224.229 91.878C221.235 78.3526 222.547 81.1633 224.468 92.6768C224.317 92.7183 224.374 92.7418 224.229 91.878ZM219.608 74.7345C219.933 75.1489 220.454 76.6468 220.792 77.6626C220.637 77.5144 219.922 75.4396 219.608 74.7345ZM33.6522 170.543C34.2664 171.074 35.8186 174.203 35.3929 173.753C35.2625 173.659 33.3419 170.387 33.6522 170.543ZM224.426 116.274C224.159 116.567 224.753 112.439 224.809 112.12C225.16 110.851 224.456 115.943 224.426 116.274ZM208.432 54.7562C207.854 54.2478 206.638 52.5091 205.77 51.4419C206.281 51.8354 207.747 53.8076 208.432 54.7562ZM213.732 63.0493C213.688 62.9775 212.727 61.3404 212.684 61.2652C212.025 59.8395 214.745 64.4782 213.732 63.0493ZM42.5653 81.5882C42.5389 81.6396 41.7909 82.7048 41.7568 82.7393C40.8431 83.54 43.1026 80.329 42.5653 81.5882Z" fill="#181919"/>
</svg>
